<svg width="94" height="65" viewBox="0 0 94 65" fill="none" xmlns="http://www.w3.org/2000/svg">
<path d="M32.5 3.05693e-05C26.0721 3.05693e-05 19.7886 1.90612 14.444 5.47727C9.09939 9.04841 4.93378 14.1242 2.47393 20.0628C0.01408 26.0014 -0.629526 32.5361 0.624494 38.8405C1.87851 45.1448 4.97383 50.9358 9.51904 55.481C14.0642 60.0262 19.8552 63.1215 26.1596 64.3755C32.464 65.6296 38.9986 64.986 44.9372 62.5261C50.8758 60.0663 55.9516 55.9007 59.5228 50.5561C63.0939 45.2115 65 38.9279 65 32.5C65.0003 28.232 64.1598 24.0057 62.5266 20.0625C60.8934 16.1193 58.4995 12.5365 55.4815 9.51852C52.4636 6.50057 48.8807 4.10665 44.9375 2.47346C40.9943 0.840264 36.768 -0.000210332 32.5 3.05693e-05Z" fill="white"/>
<path d="M32.5 3.05693e-05C26.0721 3.05693e-05 19.7886 1.90612 14.444 5.47727C9.09939 9.04841 4.93378 14.1242 2.47393 20.0628C0.01408 26.0014 -0.629526 32.5361 0.624494 38.8405C1.87851 45.1448 4.97383 50.9358 9.51904 55.481C14.0642 60.0262 19.8552 63.1215 26.1596 64.3755C32.464 65.6296 38.9986 64.986 44.9372 62.5261C50.8758 60.0663 55.9516 55.9007 59.5228 50.5561C63.0939 45.2115 65 38.9279 65 32.5C65.0003 28.232 64.1598 24.0057 62.5266 20.0625C60.8934 16.1193 58.4995 12.5365 55.4815 9.51852C52.4636 6.50057 48.8807 4.10665 44.9375 2.47346C40.9943 0.840264 36.768 -0.000210332 32.5 3.05693e-05ZM32.5 58.9096C27.2763 58.9114 22.1694 57.364 17.8252 54.4631C13.481 51.5623 10.0946 47.4383 8.09439 42.6127C6.09414 37.7872 5.56988 32.4768 6.58789 27.3532C7.60591 22.2297 10.1205 17.5231 13.8136 13.8288C17.5066 10.1344 22.2124 7.61829 27.3356 6.59855C32.4588 5.57881 37.7693 6.10128 42.5956 8.0999C47.4218 10.0985 51.5469 13.4835 54.4493 17.8267C57.3516 22.17 58.9007 27.2763 58.9007 32.5C58.9005 39.5027 56.1192 46.2186 51.1684 51.171C46.2176 56.1235 39.5027 58.907 32.5 58.9096Z" fill="#EAA700"/>
<path d="M32.5007 12.1898C28.4837 12.1898 24.5569 13.3809 21.2169 15.6127C17.8769 17.8444 15.2737 21.0164 13.7365 24.7276C12.1992 28.4388 11.797 32.5226 12.5807 36.4624C13.3644 40.4022 15.2987 44.0211 18.1392 46.8616C20.9796 49.702 24.5986 51.6364 28.5384 52.42C32.4782 53.2037 36.5619 52.8015 40.2731 51.2643C43.9843 49.727 47.1564 47.1238 49.3881 43.7838C51.6198 40.4438 52.811 36.517 52.811 32.5C52.8097 27.1138 50.6694 21.9486 46.8608 18.1399C43.0522 14.3313 37.8869 12.1911 32.5007 12.1898V12.1898ZM32.5007 46.7199C29.6883 46.7199 26.939 45.8859 24.6006 44.3234C22.2621 42.7609 20.4395 40.5401 19.3633 37.9417C18.287 35.3434 18.0054 32.4843 18.5541 29.7259C19.1027 26.9675 20.4571 24.4338 22.4457 22.4451C24.4344 20.4564 26.9682 19.1021 29.7266 18.5534C32.4849 18.0047 35.3441 18.2863 37.9424 19.3626C40.5407 20.4389 42.7616 22.2615 44.3241 24.5999C45.8866 26.9383 46.7206 29.6876 46.7206 32.5C46.7206 36.2714 45.2224 39.8882 42.5557 42.555C39.8889 45.2217 36.272 46.7199 32.5007 46.7199ZM40.6229 32.501C40.6229 34.108 40.1464 35.6789 39.2536 37.015C38.3608 38.3512 37.0919 39.3926 35.6073 40.0075C34.1226 40.6225 32.4889 40.7834 30.9128 40.4699C29.3367 40.1564 27.889 39.3825 26.7527 38.2462C25.6164 37.1099 24.8426 35.6622 24.5291 34.0861C24.2156 32.51 24.3765 30.8763 24.9914 29.3917C25.6064 27.907 26.6478 26.6381 27.9839 25.7453C29.3201 24.8525 30.891 24.376 32.4979 24.376C33.5649 24.376 34.6215 24.5862 35.6073 24.9945C36.593 25.4028 37.4887 26.0013 38.2432 26.7557C38.9977 27.5102 39.5962 28.4059 40.0045 29.3917C40.4128 30.3775 40.623 31.434 40.623 32.501H40.6229Z" fill="#CD5257"/>
<path d="M92.6553 39.3648C93.1919 40.0173 92.7277 41 91.8829 41H78.2634C78.0072 41 77.7608 40.9017 77.575 40.7254L69 32.5885L77.5736 24.2818C77.7601 24.1011 78.0097 24 78.2694 24H91.8829C92.7277 24 93.1919 24.9827 92.6553 25.6352L87.0099 32.5L92.6553 39.3648Z" fill="#E96860"/>
<g opacity="0.2">
<path d="M42.7394 61C42.4767 61 42.2198 60.9232 42.0016 60.7792C41.7834 60.6353 41.6137 60.4307 41.5141 60.1917L30.0989 32.7947C30.0326 32.6365 29.9986 32.467 29.999 32.2959C29.9994 32.1248 30.0341 31.9555 30.1011 31.7976C30.1681 31.6397 30.2661 31.4963 30.3896 31.3757C30.513 31.2551 30.6594 31.1597 30.8204 31.0948C30.9814 31.0299 31.1538 30.9968 31.3278 30.9975C31.5018 30.9982 31.6739 31.0327 31.8344 31.0989C31.9948 31.1651 32.1404 31.2618 32.2628 31.3834C32.3852 31.505 32.482 31.6491 32.5477 31.8076L43.9629 59.2045C44.0452 59.4021 44.0768 59.6166 44.0549 59.829C44.033 60.0415 43.9583 60.2454 43.8375 60.4227C43.7166 60.6001 43.5532 60.7455 43.3617 60.8462C43.1702 60.9469 42.9565 60.9997 42.7394 61H42.7394Z" fill="#232323"/>
</g>
<path d="M86.7889 33.8368H32.4977C32.1435 33.8368 31.8038 33.696 31.5533 33.4456C31.3028 33.1951 31.1621 32.8554 31.1621 32.5011C31.1621 32.1469 31.3028 31.8072 31.5533 31.5567C31.8038 31.3062 32.1435 31.1655 32.4977 31.1655H86.7889C87.1431 31.1655 87.4828 31.3062 87.7333 31.5567C87.9838 31.8072 88.1245 32.1469 88.1245 32.5011C88.1245 32.8554 87.9838 33.1951 87.7333 33.4456C87.4828 33.696 87.1431 33.8368 86.7889 33.8368Z" fill="#2B546A"/>
</svg>
