<svg width="184" height="147" viewBox="0 0 184 147" fill="none" xmlns="http://www.w3.org/2000/svg">
<path opacity="0.3" d="M84.2795 144.264C81.7374 146.383 79.1227 144.858 76.5806 142.788C76.5806 142.788 69.366 136.505 66.824 129C67.0056 131.094 67.2598 133.2 67.5624 135.27C67.8408 135.634 68.1192 135.997 68.4097 136.348C72.0049 140.718 76.3264 143.647 76.3264 143.647C79.3769 145.814 81.9069 146.698 84.1584 144.954C85.0179 144.289 85.3326 143.417 85.3447 142.533C85.2115 143.175 84.8847 143.768 84.2795 144.264Z" fill="#615A86"/>
<path d="M77.816 130.091C77.816 130.091 83.6022 137.911 83.6748 137.972C84.6796 138.686 86.7253 142.233 84.2801 144.278C81.738 146.397 79.1233 144.871 76.5813 142.801C76.5813 142.801 69.3546 136.507 66.8125 129.002" fill="#7979BA"/>
<path d="M76.7129 142.971C76.7129 142.971 81.7486 136.604 83.6612 137.984C84.678 138.722 86.7722 142.33 84.2785 144.4C81.7002 146.542 77.7297 144.4 76.7129 142.971Z" fill="#C6CED5"/>
<path opacity="0.3" d="M129.299 129.341C126.757 136.846 119.53 143.14 119.53 143.14C116.988 145.21 114.374 146.736 111.832 144.617C111.226 144.121 110.9 143.528 110.766 142.91C110.778 143.794 111.093 144.653 111.953 145.331C114.204 147.062 116.734 146.191 119.785 144.024C119.785 144.024 124.094 141.095 127.701 136.725C128.028 136.325 128.355 135.914 128.658 135.502C128.936 133.456 129.154 131.398 129.299 129.341C129.311 129.341 129.299 129.341 129.299 129.341Z" fill="#615A86"/>
<path d="M118.308 130.43C118.308 130.43 112.522 138.25 112.449 138.31C111.444 139.025 109.399 142.571 111.844 144.617C114.386 146.736 117.001 145.21 119.543 143.14C119.543 143.14 126.769 136.846 129.311 129.341" fill="#7979BA"/>
<path d="M119.407 143.31C119.407 143.31 114.372 136.943 112.459 138.323C111.442 139.061 109.348 142.668 111.842 144.738C114.42 146.893 118.39 144.751 119.407 143.31Z" fill="#C6CED5"/>
<mask id="mask0_529_2431" style="mask-type:alpha" maskUnits="userSpaceOnUse" x="0" y="0" width="184" height="131">
<rect x="0.485352" width="183.029" height="130.975" fill="#88E7CE"/>
</mask>
<g mask="url(#mask0_529_2431)">
<path d="M124.971 154.468C134.921 166.028 150.089 164.321 159.095 155.424C167.072 147.544 164.99 135.378 160.947 129.895C152.534 118.48 138.395 122.002 133.444 127.813C129.716 132.195 127.9 143.162 135.381 147.459C142.463 151.538 149.907 147.992 150.198 145.365C149.992 149.287 137.136 156.671 127.537 145.123" fill="#7879BA"/>
<path d="M54.5688 110.26C48.371 116.349 40.1396 125.658 35.2371 140.123C35.2613 140.111 35.2855 140.087 35.2976 140.075C52.0026 128.382 49.7631 135.1 59.4351 131.287C68.7923 127.607 65.6207 121.506 68.7923 116.712C68.6349 116.688 57.4256 112.669 54.5688 110.26Z" fill="#7879BA"/>
<path opacity="0.24" d="M55.187 118.661C58.1649 121.796 59.2422 126.202 58.8427 131.529C59.0364 131.456 59.2422 131.383 59.448 131.299C64.2658 129.41 65.7547 126.868 66.5173 124.205C61.9658 122.668 58.2254 120.791 55.187 118.661Z" fill="#615A86"/>
<path d="M51.1791 106.871C43.3835 110.284 33.5663 117.341 28.1917 124.907C33.5663 123.588 38.6504 123.297 43.3472 123.66C43.3472 123.66 50.2228 114.473 54.8954 110.526C53.8059 109.594 52.1476 108.021 51.1791 106.871Z" fill="#646DA9"/>
<path d="M124.704 109.22C116.63 102.732 82.3971 103.313 73.3062 109.208C59.4338 118.202 73.3304 162.228 73.3304 162.228C73.3667 162.434 76.8167 172.299 76.8167 172.299C78.8382 178.025 82.8813 178.655 84.9028 172.929C84.9028 172.929 87.6628 162.894 87.7717 162.821C92.2022 164.044 107.915 163.208 110.699 162.579C110.989 162.712 113.156 173.062 113.156 173.062C115.178 178.788 119.548 178.025 121.569 172.299L124.716 162.24C124.716 162.24 137.027 119.122 124.704 109.22Z" fill="#7879BA"/>
<path d="M115.419 129.241C115.383 137.86 99.0897 144.784 99.0897 144.784C99.0897 144.784 82.8568 137.727 82.8931 129.108C82.9294 120.49 86.2583 113.517 99.2228 113.565C112.902 113.626 115.468 120.623 115.419 129.241Z" fill="#FDFEFF"/>
<mask id="mask1_529_2431" style="mask-type:alpha" maskUnits="userSpaceOnUse" x="82" y="113" width="34" height="32">
<path d="M115.419 129.241C115.383 137.86 99.0897 144.784 99.0897 144.784C99.0897 144.784 82.8568 137.727 82.8931 129.108C82.9294 120.49 86.2583 113.517 99.2228 113.565C112.902 113.626 115.468 120.623 115.419 129.241Z" fill="#FDFEFF"/>
</mask>
<g mask="url(#mask1_529_2431)">
<path fill-rule="evenodd" clip-rule="evenodd" d="M91.9278 132.429C94.7068 130.6 97.6841 128.542 99.4052 127.179L100.157 128.129C98.3913 129.526 95.3766 131.608 92.5934 133.44C89.8234 135.264 87.2197 136.882 86.2912 137.327L85.7678 136.235C86.6066 135.833 89.1354 134.268 91.9278 132.429Z" fill="#615A86"/>
<path fill-rule="evenodd" clip-rule="evenodd" d="M102.337 134.737C106.959 131.504 111.683 128.051 113.411 126.683L114.163 127.632C112.405 129.023 107.656 132.494 103.03 135.729C100.716 137.347 98.4254 138.911 96.5492 140.13C95.6115 140.74 94.7731 141.266 94.0846 141.67C93.4095 142.066 92.8402 142.369 92.457 142.507L92.0471 141.368C92.3115 141.273 92.7919 141.025 93.4716 140.626C94.138 140.235 94.9594 139.72 95.8897 139.115C97.7495 137.907 100.027 136.352 102.337 134.737Z" fill="#615A86"/>
<path fill-rule="evenodd" clip-rule="evenodd" d="M106 133.44C103.216 131.608 100.202 129.526 98.4365 128.129L99.1879 127.179C100.909 128.542 103.886 130.6 106.665 132.429C109.458 134.268 111.986 135.833 112.825 136.235L112.302 137.327C111.373 136.882 108.77 135.264 106 133.44Z" fill="#615A86"/>
<path fill-rule="evenodd" clip-rule="evenodd" d="M95.5626 135.729C90.9367 132.494 86.1884 129.024 84.4304 127.632L85.1818 126.683C86.9101 128.051 91.6339 131.505 96.2563 134.737C98.5657 136.352 100.844 137.907 102.703 139.116C103.634 139.72 104.455 140.235 105.121 140.626C105.801 141.025 106.282 141.273 106.546 141.368L106.136 142.507C105.753 142.369 105.184 142.067 104.508 141.67C103.82 141.266 102.982 140.74 102.044 140.131C100.168 138.912 97.8773 137.348 95.5626 135.729Z" fill="#615A86"/>
</g>
<path opacity="0.3" d="M127.718 124.726C127.706 127.087 115.056 136.008 98.8597 135.936C82.6753 135.875 69.8802 127.91 69.8923 125.537C69.9044 123.177 82.2153 124.981 98.3997 125.053C114.596 125.126 127.73 122.366 127.718 124.726Z" fill="#615A86"/>
<path d="M64.6519 37.8407C69.8813 33.3135 86.5136 30.844 98.7397 30.8924C112.673 30.9409 128.24 34.5845 137.863 39.4507C159.047 31.4614 175.014 56.0952 175.922 60.7072C176.648 64.3629 166.528 66.9292 149.327 61.8935C149.327 61.8935 153.563 79.0706 153.806 88.5609C154.132 101.114 151.978 128.508 98.2434 128.508C44.5091 128.508 41.616 103.281 41.5918 87.6894C41.5796 80.5595 44.848 63.7577 46.3127 57.2088C38.3234 55.1389 32.0772 33.1924 36.3745 23.2057C38.5776 18.0853 60.5119 28.2051 64.6519 37.8407Z" fill="#7879BA"/>
<path opacity="0.25" d="M175.923 61.2995C174.749 62.7642 161.155 63.9626 148.348 57.9343C145.552 56.627 146.387 58.5396 149.449 62.3769C149.377 62.05 149.328 61.8685 149.328 61.8685C165.561 66.65 175.475 64.6284 175.923 61.2995Z" fill="#615A86"/>
<path opacity="0.25" d="M49.4846 55.0043C37.3675 49.9081 35.2975 28.3732 35.3701 26.9811C35.3701 26.9448 35.358 26.9206 35.3338 26.9084C33.4939 37.7667 39.1711 55.2464 46.2405 57.1953C49.8841 56.5537 51.373 55.8032 49.4846 55.0043Z" fill="#615A86"/>
<path d="M98.0743 70.4768C72.4479 70.4768 57.2561 79.8219 57.2561 97.3016C57.2561 115.483 73.7916 120.289 98.2075 120.301C122.623 120.301 139.171 115.532 139.171 97.3258C139.171 78.8414 123.701 70.4889 98.0743 70.4768Z" fill="#E2C080"/>
<path opacity="0.2" d="M59.5206 86.8555L59.2422 87.6666C82.3023 79.7741 121.777 80.9725 137.707 88.0176C132.466 77.0867 117.589 70.8769 97.8089 70.8647C78.6224 70.8647 65.0042 76.7236 59.5206 86.8555Z" fill="#615A86"/>
<path d="M59.812 86.0083L59.8241 86.0204C80.8264 79.8711 118.994 79.8832 136.824 86.2383C131.583 75.4769 117.88 70.2597 98.1124 70.2476C78.9138 70.2597 65.2956 76.0338 59.812 86.0083Z" fill="#D2D2D2"/>
<path d="M87.1848 70.4344L98.2405 81.4963L109.302 70.4406L98.2467 59.3786L87.1848 70.4344Z" fill="white"/>
<path opacity="0.23" d="M98.2339 81.4935L109.298 70.4416L98.246 59.3896L98.2339 81.4935Z" fill="#A0A1C2"/>
<path opacity="0.9" d="M77.6299 89.0459C77.1578 91.1401 79.3004 91.0553 81.2493 90.9706C83.1982 90.8859 85.5708 92.0843 84.9777 88.7312C84.7355 87.4117 83.1982 86.3707 81.3824 86.3223C78.7557 86.3223 77.8599 88.0412 77.6299 89.0459Z" fill="white"/>
<path opacity="0.9" d="M118.787 88.8152C119.404 90.873 117.262 90.9336 115.301 90.982C113.352 91.0304 111.064 92.3862 111.427 89.0089C111.572 87.6773 113.049 86.5394 114.853 86.37C117.371 86.1036 118.484 87.8226 118.787 88.8152Z" fill="white"/>
<path d="M81.3214 102.652C83.4741 102.652 85.2192 100.907 85.2192 98.7545C85.2192 96.6018 83.4741 94.8567 81.3214 94.8567C79.1687 94.8567 77.4236 96.6018 77.4236 98.7545C77.4236 100.907 79.1687 102.652 81.3214 102.652Z" fill="#2C376E"/>
<path d="M80.4126 100.28C80.7001 100.28 80.9331 100.047 80.9331 99.7598C80.9331 99.4723 80.7001 99.2393 80.4126 99.2393C80.1251 99.2393 79.8921 99.4723 79.8921 99.7598C79.8921 100.047 80.1251 100.28 80.4126 100.28Z" fill="white"/>
<path d="M82.4225 98.9841C83.1044 98.9841 83.6572 98.4313 83.6572 97.7494C83.6572 97.0674 83.1044 96.5146 82.4225 96.5146C81.7405 96.5146 81.1877 97.0674 81.1877 97.7494C81.1877 98.4313 81.7405 98.9841 82.4225 98.9841Z" fill="white"/>
<path d="M115.143 102.653C117.295 102.653 119.041 100.908 119.041 98.7555C119.041 96.6028 117.295 94.8577 115.143 94.8577C112.99 94.8577 111.245 96.6028 111.245 98.7555C111.245 100.908 112.99 102.653 115.143 102.653Z" fill="#2C376E"/>
<path d="M116.305 100.282C116.592 100.282 116.825 100.049 116.825 99.7615C116.825 99.474 116.592 99.241 116.305 99.241C116.017 99.241 115.784 99.474 115.784 99.7615C115.784 100.049 116.017 100.282 116.305 100.282Z" fill="white"/>
<path d="M114.296 98.9865C114.978 98.9865 115.53 98.4337 115.53 97.7518C115.53 97.0699 114.978 96.5171 114.296 96.5171C113.614 96.5171 113.061 97.0699 113.061 97.7518C113.061 98.4337 113.614 98.9865 114.296 98.9865Z" fill="white"/>
<path d="M110.651 106.682C110.651 111.44 105.095 114.248 98.2431 114.248C91.3917 114.248 85.8354 111.428 85.8354 106.67C85.8354 101.913 91.3917 97.0226 98.2431 97.0347C105.095 97.0347 110.651 101.925 110.651 106.682Z" fill="white"/>
<path d="M102.599 102.288C102.599 103.862 100.65 105.133 98.2411 105.133C95.8322 105.133 93.8833 103.862 93.8833 102.288C93.8833 100.715 95.8322 100.388 98.2411 100.388C100.65 100.388 102.599 100.715 102.599 102.288Z" fill="#2C376E"/>
<path opacity="0.8" d="M99.7536 101.768C99.7536 102.312 99.0757 102.76 98.2404 102.76C97.4052 102.76 96.7273 102.312 96.7273 101.768C96.7273 101.223 97.4052 101.102 98.2404 101.102C99.0757 101.102 99.7536 101.223 99.7536 101.768Z" fill="white"/>
<path d="M103.569 105.363C103.242 105.278 102.915 105.46 102.83 105.787C102.685 106.32 101.959 106.804 101.123 106.925C100.663 106.997 99.5619 107.022 98.8598 106.029V103.584C98.8598 103.245 98.5935 102.979 98.2545 102.979C97.9156 102.979 97.6493 103.245 97.6493 103.584V106.029C96.9472 107.022 95.8456 106.997 95.3856 106.925C94.5383 106.804 93.8241 106.32 93.6667 105.787C93.582 105.46 93.243 105.278 92.9283 105.363C92.6015 105.448 92.4199 105.787 92.5046 106.102C92.783 107.118 93.8725 107.929 95.2162 108.123C96.3177 108.281 97.4435 107.99 98.2545 107.179C99.2835 108.232 100.53 108.256 101.293 108.123C102.637 107.905 103.726 107.118 104.004 106.102C104.077 105.775 103.883 105.448 103.569 105.363Z" fill="#2C376E"/>
</g>
</svg>
